<svg width="105" height="25" viewBox="0 0 105 25" fill="none" xmlns="http://www.w3.org/2000/svg">
<path d="M47.6209 22.1248H32.9959V18.3498L41.5709 8.24976H32.8959V4.17475H47.3709V8.02476L38.7459 18.0498H47.6209V22.1248ZM57.8469 22.1248V20.8248C56.8969 21.8998 55.7219 22.3748 53.9969 22.3748C51.1969 22.3748 49.3219 20.6998 49.3219 18.1498C49.3219 15.5248 51.4469 14.0998 55.2969 14.0998C56.0219 14.0998 56.6969 14.1498 57.2719 14.2498V13.5998C57.2719 12.4248 56.5969 11.7748 55.3969 11.7748C54.2219 11.7748 53.5219 12.4248 53.3719 13.5998H49.5219C49.7719 10.4748 52.0969 8.42475 55.4219 8.42475C59.1219 8.42475 61.2969 10.4248 61.2969 13.8248V22.1248H57.8469ZM53.3469 18.0248C53.3469 18.8998 53.9469 19.4248 54.9969 19.4248C56.4219 19.4248 57.2719 18.7498 57.2719 17.6498V16.7998C56.6219 16.6748 56.1219 16.6248 55.5719 16.6248C54.1219 16.6248 53.3469 17.0998 53.3469 18.0248ZM75.4362 22.1248H63.6612V18.5998L69.9362 12.4248H63.5112V8.67475H75.2862V12.2748L68.9362 18.3748H75.4362V22.1248ZM83.6104 22.3498C79.4604 22.3498 76.6854 19.5498 76.6854 15.3748C76.6854 11.3498 79.5854 8.42475 83.5854 8.42475C88.0354 8.42475 91.0104 12.0498 90.2354 16.4748H81.1104C81.3354 18.1748 82.1354 19.0248 83.5104 19.0248C84.7104 19.0248 85.5104 18.5248 85.8854 17.5498H90.1604C89.3354 20.6248 86.9604 22.3498 83.6104 22.3498ZM83.4854 11.5748C82.2104 11.5748 81.4604 12.2998 81.1604 13.7998H85.6604C85.6104 12.4498 84.7604 11.5748 83.4854 11.5748ZM96.5809 15.0498V22.1248H92.3059V8.67475H96.2309V10.2998C97.2809 9.12475 98.5309 8.42475 100.231 8.42475C102.881 8.42475 104.756 10.1998 104.756 13.4748V22.1248H100.481V14.8998C100.481 13.1998 99.8809 12.2748 98.5809 12.2748C97.5309 12.2748 96.5809 13.0248 96.5809 15.0498Z" fill="#26282C"/>
<path opacity="0.4" fill-rule="evenodd" clip-rule="evenodd" d="M12.8623 0.167236C9.68595 0.168021 6.63999 1.43036 4.39427 3.67663C2.14855 5.92291 0.886963 8.96917 0.886963 12.1455C0.886963 15.3218 2.14855 18.3681 4.39427 20.6144C6.63999 22.8606 9.68595 24.123 12.8623 24.1238V0.167236Z" fill="#FD1774"/>
<path fill-rule="evenodd" clip-rule="evenodd" d="M24.9459 24.1237H12.8622C6.24499 24.0949 0.883986 18.7778 0.883986 12.1454L0.88208 12.145H12.8623L12.8622 12.1454L12.8823 12.145H13.4882C16.5172 12.2228 19.3994 13.4666 21.5339 15.6171C23.6684 17.7676 24.8907 20.6589 24.9459 23.6884V24.1237Z" fill="#FD1774"/>
<path opacity="0.51" fill-rule="evenodd" clip-rule="evenodd" d="M12.8625 12.145L0.884187 12.1454C0.878503 14.6206 1.64492 17.036 3.07669 19.0551C3.08708 19.0697 3.09755 19.0844 3.10793 19.099C4.21878 20.6502 5.68271 21.9148 7.37881 22.7885C9.07492 23.6622 10.9545 24.1199 12.8624 24.1237L12.8625 12.145Z" fill="#FEDCEA"/>
<circle cx="19.8479" cy="6.15647" r="4.99094" fill="#FD1774"/>
</svg>
